<?xml version="1.0" encoding="utf-8"?>
<!-- Generator: Adobe Illustrator 22.0.1, SVG Export Plug-In . SVG Version: 6.00 Build 0)  -->
<svg version="1.1" id="Layer_1" xmlns="http://www.w3.org/2000/svg" xmlns:xlink="http://www.w3.org/1999/xlink" x="0px" y="0px"
	 viewBox="0 0 124 124" style="enable-background:new 0 0 124 124;" xml:space="preserve">
<style type="text/css">
	.st0{fill:#FFFFFF;}
	.st1{fill:#00AFF0;}
</style>
<path id="logo" class="st0" d="M62,0c34.2,0,62,27.8,62,62s-27.8,62-62,62S0,96.2,0,62S27.8,0,62,0z M49.8,38.9L49.8,38.9l35.8,23
	h0.1L49.8,38.9z M44.9,114.1L44.9,114.1c2.9,1,6,1.7,9.2,2.2C50.9,115.9,47.9,115.1,44.9,114.1z M44.8,114.1L44.8,114.1L89.7,85
	L44.8,114.1z M89.6,85l26.2-17c0,0,0,0,0-0.1L89.6,85z M115.8,68c-2.5,23.7-19.9,42.5-42.2,47.5C96,110.5,113.5,91.7,115.8,68
	L115.8,68z M115,51.2c0.4,1.8,0.6,3.7,0.8,5.6l0.1,0.1C115.6,55,115.3,53.1,115,51.2z M115.7,56.8l-71-46.2c0,0,0.1,0,0.1-0.1
	c3.8-1.2,7.6-2,11.5-2.4c-3.9,0.4-7.8,1.2-11.6,2.4c0,0,0,0-0.1,0L115.7,56.8L115.7,56.8z M113.7,46.5c0.3,1,0.6,2.1,0.9,3.2
	C114.3,48.6,114.1,47.5,113.7,46.5z M112.3,42.3c0.4,1,0.8,2.1,1.1,3.2l0,0C113.1,44.4,112.7,43.3,112.3,42.3z M111.4,40.2
	c-0.1-0.3-0.3-0.7-0.5-1c0.5,1,0.9,2,1.3,3.1C112,41.6,111.7,40.9,111.4,40.2z M85.6,61.9L49.8,84.8L85.6,61.9L85.6,61.9z
	 M49.8,38.9L49.8,38.9l35.8,23h0.1L49.8,38.9z M85.6,61.9L49.8,84.8L85.6,61.9L85.6,61.9z M49.8,38.9L49.8,38.9l35.8,23h0.1
	L49.8,38.9z M115,51.2c0.4,1.8,0.6,3.7,0.8,5.6l0.1,0.1C115.6,55,115.3,53.1,115,51.2z M115.7,56.8l-71-46.2c0,0,0.1,0,0.1-0.1
	c3.8-1.2,7.6-2,11.5-2.4c-3.9,0.4-7.8,1.2-11.6,2.4c0,0,0,0-0.1,0L115.7,56.8L115.7,56.8z M113.7,46.5c0.3,1,0.6,2.1,0.9,3.2
	C114.3,48.6,114.1,47.5,113.7,46.5z M112.3,42.3c0.4,1,0.8,2.1,1.1,3.2l0,0C113.1,44.4,112.7,43.3,112.3,42.3z M111.4,40.2
	c-0.1-0.3-0.3-0.7-0.5-1c0.5,1,0.9,2,1.3,3.1C112,41.6,111.7,40.9,111.4,40.2z M44.9,114.1L44.9,114.1c2.9,1,6,1.7,9.2,2.2
	C50.9,115.9,47.9,115.1,44.9,114.1z M44.8,114.1L44.8,114.1L89.7,85L44.8,114.1z M89.6,85l26.2-17c0,0,0,0,0-0.1L89.6,85z M115.8,68
	c-2.5,23.7-19.9,42.5-42.2,47.5C96,110.5,113.5,91.7,115.8,68L115.8,68z M44.9,114.1L44.9,114.1c2.9,1,6,1.7,9.2,2.2
	C50.9,115.9,47.9,115.1,44.9,114.1z M44.8,114.1L44.8,114.1L89.7,85L44.8,114.1z M89.6,85l26.2-17c0,0,0,0,0-0.1L89.6,85z M115.8,68
	c-2.5,23.7-19.9,42.5-42.2,47.5C96,110.5,113.5,91.7,115.8,68L115.8,68z M115,51.2c0.4,1.8,0.6,3.7,0.8,5.6l0.1,0.1
	C115.6,55,115.3,53.1,115,51.2z M115.7,56.8l-71-46.2c0,0,0.1,0,0.1-0.1c3.8-1.2,7.6-2,11.5-2.4c-3.9,0.4-7.8,1.2-11.6,2.4
	c0,0,0,0-0.1,0L115.7,56.8L115.7,56.8z M113.7,46.5c0.3,1,0.6,2.1,0.9,3.2C114.3,48.6,114.1,47.5,113.7,46.5z M112.3,42.3
	c0.4,1,0.8,2.1,1.1,3.2l0,0C113.1,44.4,112.7,43.3,112.3,42.3z M111.4,40.2c-0.1-0.3-0.3-0.7-0.5-1c0.5,1,0.9,2,1.3,3.1
	C112,41.6,111.7,40.9,111.4,40.2z M49.8,38.9L49.8,38.9l35.8,23h0.1L49.8,38.9z M85.6,61.9L49.8,84.8L85.6,61.9L85.6,61.9z
	 M44.9,114.1L44.9,114.1c2.9,1,6,1.7,9.2,2.2C50.9,115.9,47.9,115.1,44.9,114.1z M85.6,61.9L49.8,84.8L85.6,61.9L85.6,61.9z
	 M49.8,38.9L49.8,38.9l35.8,23h0.1L49.8,38.9z M44.8,114.1L44.8,114.1L89.7,85L44.8,114.1z M111.4,40.2c-0.1-0.3-0.3-0.7-0.5-1
	c0.5,1,0.9,2,1.3,3.1C112,41.6,111.7,40.9,111.4,40.2z M112.3,42.3c0.4,1,0.8,2.1,1.1,3.2l0,0C113.1,44.4,112.7,43.3,112.3,42.3z
	 M113.7,46.5c0.3,1,0.6,2.1,0.9,3.2C114.3,48.6,114.1,47.5,113.7,46.5z M115.7,56.8l-71-46.2c0,0,0.1,0,0.1-0.1
	c3.8-1.2,7.6-2,11.5-2.4c-3.9,0.4-7.8,1.2-11.6,2.4c0,0,0,0-0.1,0L115.7,56.8L115.7,56.8z M115,51.2c0.4,1.8,0.6,3.7,0.8,5.6
	l0.1,0.1C115.6,55,115.3,53.1,115,51.2z M89.6,85l26.2-17c0,0,0,0,0-0.1L89.6,85z M115.8,68c-2.5,23.7-19.9,42.5-42.2,47.5
	C96,110.5,113.5,91.7,115.8,68L115.8,68z M115.8,68c-2.5,23.7-19.9,42.5-42.2,47.5C96,110.5,113.5,91.7,115.8,68L115.8,68z M89.6,85
	l26.2-17c0,0,0,0,0-0.1L89.6,85z M115,51.2c0.4,1.8,0.6,3.7,0.8,5.6l0.1,0.1C115.6,55,115.3,53.1,115,51.2z M115.7,56.8l-71-46.2
	c0,0,0.1,0,0.1-0.1c3.8-1.2,7.6-2,11.5-2.4c-3.9,0.4-7.8,1.2-11.6,2.4c0,0,0,0-0.1,0L115.7,56.8L115.7,56.8z M113.7,46.5
	c0.3,1,0.6,2.1,0.9,3.2C114.3,48.6,114.1,47.5,113.7,46.5z M113.4,45.5c-0.3-1.1-0.7-2.1-1.1-3.2C112.7,43.3,113.1,44.4,113.4,45.5
	L113.4,45.5z M111.4,40.2c-0.1-0.3-0.3-0.7-0.5-1c0.5,1,0.9,2,1.3,3.1C112,41.6,111.7,40.9,111.4,40.2z M44.9,114.1L89.7,85
	L44.9,114.1C44.8,114.1,44.8,114.1,44.9,114.1z M49.8,38.9L49.8,38.9l35.8,23h0.1L49.8,38.9z M85.7,62L85.7,62L49.8,84.9L85.7,62z
	 M54.1,116.3c-3.1-0.5-6.2-1.2-9.2-2.2l-0.1,0.1C47.8,115.2,50.9,115.9,54.1,116.3z M115.8,68c-2.5,23.7-19.9,42.5-42.2,47.5
	C96,110.5,113.5,91.7,115.8,68L115.8,68z M89.6,85l26.2-17c0,0,0,0,0-0.1L89.6,85z M115,51.2c0.4,1.8,0.6,3.7,0.8,5.6l0.1,0.1
	C115.6,55,115.3,53.1,115,51.2z M115.7,56.8l-71-46.2c0,0,0.1,0,0.1-0.1c3.8-1.2,7.6-2,11.5-2.4c-3.9,0.4-7.8,1.2-11.6,2.4
	c0,0,0,0-0.1,0L115.7,56.8L115.7,56.8z M113.7,46.5c0.3,1,0.6,2.1,0.9,3.2C114.3,48.6,114.1,47.5,113.7,46.5z M113.4,45.5
	c-0.3-1.1-0.7-2.1-1.1-3.2C112.7,43.3,113.1,44.4,113.4,45.5L113.4,45.5z M111.4,40.2c-0.1-0.3-0.3-0.7-0.5-1c0.5,1,0.9,2,1.3,3.1
	C112,41.6,111.7,40.9,111.4,40.2z M44.9,114.1L89.7,85L44.9,114.1C44.8,114.1,44.8,114.1,44.9,114.1z M49.8,38.9L49.8,38.9l35.8,23
	h0.1L49.8,38.9z M85.7,62L85.7,62L49.8,84.9L85.7,62z M54.1,116.3c-3.1-0.5-6.2-1.2-9.2-2.2l-0.1,0.1
	C47.8,115.2,50.9,115.9,54.1,116.3z M44.9,114.1L44.9,114.1c2.9,1,6,1.7,9.2,2.2C50.9,115.9,47.9,115.1,44.9,114.1z M85.6,61.9
	L49.8,84.8L85.6,61.9L85.6,61.9z M49.8,38.9L49.8,38.9l35.8,23h0.1L49.8,38.9z M44.8,114.1L44.8,114.1L89.7,85L44.8,114.1z
	 M111.4,40.2c-0.1-0.3-0.3-0.7-0.5-1c0.5,1,0.9,2,1.3,3.1C112,41.6,111.7,40.9,111.4,40.2z M112.3,42.3c0.4,1,0.8,2.1,1.1,3.2l0,0
	C113.1,44.4,112.7,43.3,112.3,42.3z M113.7,46.5c0.3,1,0.6,2.1,0.9,3.2C114.3,48.6,114.1,47.5,113.7,46.5z M115.7,56.8l-71-46.2
	c0,0,0.1,0,0.1-0.1c3.8-1.2,7.6-2,11.5-2.4c-3.9,0.4-7.8,1.2-11.6,2.4c0,0,0,0-0.1,0L115.7,56.8L115.7,56.8z M115,51.2
	c0.4,1.8,0.6,3.7,0.8,5.6l0.1,0.1C115.6,55,115.3,53.1,115,51.2z M89.6,85l26.2-17c0,0,0,0,0-0.1L89.6,85z M115.8,68
	c-2.5,23.7-19.9,42.5-42.2,47.5C96,110.5,113.5,91.7,115.8,68L115.8,68z M44.9,114.1L44.9,114.1c2.9,1,6,1.7,9.2,2.2
	C50.9,115.9,47.9,115.1,44.9,114.1z M44.8,114.1L44.8,114.1L89.7,85L44.8,114.1z M89.6,85l26.2-17c0,0,0,0,0-0.1L89.6,85z M115.8,68
	c-2.5,23.7-19.9,42.5-42.2,47.5C96,110.5,113.5,91.7,115.8,68L115.8,68z M115,51.2c0.4,1.8,0.6,3.7,0.8,5.6l0.1,0.1
	C115.6,55,115.3,53.1,115,51.2z M115.7,56.8l-71-46.2c0,0,0.1,0,0.1-0.1c3.8-1.2,7.6-2,11.5-2.4c-3.9,0.4-7.8,1.2-11.6,2.4
	c0,0,0,0-0.1,0L115.7,56.8L115.7,56.8z M113.7,46.5c0.3,1,0.6,2.1,0.9,3.2C114.3,48.6,114.1,47.5,113.7,46.5z M112.3,42.3
	c0.4,1,0.8,2.1,1.1,3.2l0,0C113.1,44.4,112.7,43.3,112.3,42.3z M111.4,40.2c-0.1-0.3-0.3-0.7-0.5-1c0.5,1,0.9,2,1.3,3.1
	C112,41.6,111.7,40.9,111.4,40.2z M49.8,38.9L49.8,38.9l35.8,23h0.1L49.8,38.9z M85.6,61.9L49.8,84.8L85.6,61.9L85.6,61.9z
	 M85.6,61.9L49.8,84.8L85.6,61.9L85.6,61.9z M49.8,38.9L49.8,38.9l35.8,23h0.1L49.8,38.9z M115,51.2c0.4,1.8,0.6,3.7,0.8,5.6
	l0.1,0.1C115.6,55,115.3,53.1,115,51.2z M115.7,56.8l-71-46.2c0,0,0.1,0,0.1-0.1c3.8-1.2,7.6-2,11.5-2.4c-3.9,0.4-7.8,1.2-11.6,2.4
	c0,0,0,0-0.1,0L115.7,56.8L115.7,56.8z M113.7,46.5c0.3,1,0.6,2.1,0.9,3.2C114.3,48.6,114.1,47.5,113.7,46.5z M112.3,42.3
	c0.4,1,0.8,2.1,1.1,3.2l0,0C113.1,44.4,112.7,43.3,112.3,42.3z M111.4,40.2c-0.1-0.3-0.3-0.7-0.5-1c0.5,1,0.9,2,1.3,3.1
	C112,41.6,111.7,40.9,111.4,40.2z M44.9,114.1L44.9,114.1c2.9,1,6,1.7,9.2,2.2C50.9,115.9,47.9,115.1,44.9,114.1z M44.8,114.1
	L44.8,114.1L89.7,85L44.8,114.1z M89.6,85l26.2-17c0,0,0,0,0-0.1L89.6,85z M115.8,68c-2.5,23.7-19.9,42.5-42.2,47.5
	C96,110.5,113.5,91.7,115.8,68L115.8,68z M44.9,114.1L44.9,114.1c2.9,1,6,1.7,9.2,2.2C50.9,115.9,47.9,115.1,44.9,114.1z
	 M44.8,114.1L44.8,114.1L89.7,85L44.8,114.1z M89.6,85l26.2-17c0,0,0,0,0-0.1L89.6,85z M115.8,68c-2.5,23.7-19.9,42.5-42.2,47.5
	C96,110.5,113.5,91.7,115.8,68L115.8,68z M115,51.2c0.4,1.8,0.6,3.7,0.8,5.6l0.1,0.1C115.6,55,115.3,53.1,115,51.2z M115.7,56.8
	l-71-46.2c0,0,0.1,0,0.1-0.1c3.8-1.2,7.6-2,11.5-2.4c-3.9,0.4-7.8,1.2-11.6,2.4c0,0,0,0-0.1,0L115.7,56.8L115.7,56.8z M113.7,46.5
	c0.3,1,0.6,2.1,0.9,3.2C114.3,48.6,114.1,47.5,113.7,46.5z M112.3,42.3c0.4,1,0.8,2.1,1.1,3.2l0,0C113.1,44.4,112.7,43.3,112.3,42.3
	z M111.4,40.2c-0.1-0.3-0.3-0.7-0.5-1c0.5,1,0.9,2,1.3,3.1C112,41.6,111.7,40.9,111.4,40.2z M85.6,61.9L49.8,84.8L85.6,61.9
	L85.6,61.9z M49.8,38.9L49.8,38.9l35.8,23h0.1L49.8,38.9z M44.9,114.1L44.9,114.1c2.9,1,6,1.7,9.2,2.2
	C50.9,115.9,47.9,115.1,44.9,114.1z M89.6,85l26.2-17c0,0,0,0,0-0.1L89.6,85z M115,51.2c0.4,1.8,0.6,3.7,0.8,5.6l0.1,0.1
	C115.6,55,115.3,53.1,115,51.2z M111.4,40.2c-0.1-0.3-0.3-0.7-0.5-1c0.5,1,0.9,2,1.3,3.1C112,41.6,111.7,40.9,111.4,40.2z
	 M85.6,61.9L49.8,84.8L85.6,61.9L85.6,61.9z M44.9,114.1L44.9,114.1c2.9,1,6,1.7,9.2,2.2C50.9,115.9,47.9,115.1,44.9,114.1z
	 M89.6,85l26.2-17c0,0,0,0,0-0.1L89.6,85z M115.7,56.8l-71-46.2c0,0,0.1,0,0.1-0.1c3.8-1.2,7.6-2,11.5-2.4
	c-3.9,0.4-7.8,1.2-11.6,2.4c0,0,0,0-0.1,0L115.7,56.8L115.7,56.8z M113.7,46.5c0.3,1,0.6,2.1,0.9,3.2
	C114.3,48.6,114.1,47.5,113.7,46.5z M112.3,42.3c0.4,1,0.8,2.1,1.1,3.2l0,0C113.1,44.4,112.7,43.3,112.3,42.3z M111.4,40.2
	c-0.1-0.3-0.3-0.7-0.5-1c0.5,1,0.9,2,1.3,3.1C112,41.6,111.7,40.9,111.4,40.2z M49.8,38.9L49.8,38.9l35.8,23h0.1L49.8,38.9z
	 M44.9,114.1L44.9,114.1c2.9,1,6,1.7,9.2,2.2C50.9,115.9,47.9,115.1,44.9,114.1z M44.8,114.1L44.8,114.1L89.7,85L44.8,114.1z
	 M89.6,85l26.2-17c0,0,0,0,0-0.1L89.6,85z M115.8,68c-2.5,23.7-19.9,42.5-42.2,47.5C96,110.5,113.5,91.7,115.8,68L115.8,68z
	 M115,51.2c0.4,1.8,0.6,3.7,0.8,5.6l0.1,0.1C115.6,55,115.3,53.1,115,51.2z M115.7,56.8l-71-46.2c0,0,0.1,0,0.1-0.1
	c3.8-1.2,7.6-2,11.5-2.4c-3.9,0.4-7.8,1.2-11.6,2.4c0,0,0,0-0.1,0L115.7,56.8L115.7,56.8z M113.7,46.5c0.3,1,0.6,2.1,0.9,3.2
	C114.3,48.6,114.1,47.5,113.7,46.5z M112.3,42.3c0.4,1,0.8,2.1,1.1,3.2l0,0C113.1,44.4,112.7,43.3,112.3,42.3z M111.4,40.2
	c-0.1-0.3-0.3-0.7-0.5-1c0.5,1,0.9,2,1.3,3.1C112,41.6,111.7,40.9,111.4,40.2z M85.6,61.9L49.8,84.8L85.6,61.9L85.6,61.9z
	 M49.8,38.9L49.8,38.9l35.8,23h0.1L49.8,38.9z M85.6,61.9L49.8,84.8L85.6,61.9L85.6,61.9z M49.8,38.9L49.8,38.9l35.8,23h0.1
	L49.8,38.9z M115,51.2c0.4,1.8,0.6,3.7,0.8,5.6l0.1,0.1C115.6,55,115.3,53.1,115,51.2z M115.7,56.8l-71-46.2c0,0,0.1,0,0.1-0.1
	c3.8-1.2,7.6-2,11.5-2.4c-3.9,0.4-7.8,1.2-11.6,2.4c0,0,0,0-0.1,0L115.7,56.8L115.7,56.8z M113.7,46.5c0.3,1,0.6,2.1,0.9,3.2
	C114.3,48.6,114.1,47.5,113.7,46.5z M112.3,42.3c0.4,1,0.8,2.1,1.1,3.2l0,0C113.1,44.4,112.7,43.3,112.3,42.3z M111.4,40.2
	c-0.1-0.3-0.3-0.7-0.5-1c0.5,1,0.9,2,1.3,3.1C112,41.6,111.7,40.9,111.4,40.2z M44.9,114.1L44.9,114.1c2.9,1,6,1.7,9.2,2.2
	C50.9,115.9,47.9,115.1,44.9,114.1z M44.8,114.1L44.8,114.1L89.7,85L44.8,114.1z M89.6,85l26.2-17c0,0,0,0,0-0.1L89.6,85z M115.8,68
	c-2.5,23.7-19.9,42.5-42.2,47.5C96,110.5,113.5,91.7,115.8,68L115.8,68z M44.9,114.1L44.9,114.1c2.9,1,6,1.7,9.2,2.2
	C50.9,115.9,47.9,115.1,44.9,114.1z M44.8,114.1L44.8,114.1L89.7,85L44.8,114.1z M89.6,85l26.2-17c0,0,0,0,0-0.1L89.6,85z M115.8,68
	c-2.5,23.7-19.9,42.5-42.2,47.5C96,110.5,113.5,91.7,115.8,68L115.8,68z M115,51.2c0.4,1.8,0.6,3.7,0.8,5.6l0.1,0.1
	C115.6,55,115.3,53.1,115,51.2z M115.7,56.8l-71-46.2c0,0,0.1,0,0.1-0.1c3.8-1.2,7.6-2,11.5-2.4c-3.9,0.4-7.8,1.2-11.6,2.4
	c0,0,0,0-0.1,0L115.7,56.8L115.7,56.8z M113.7,46.5c0.3,1,0.6,2.1,0.9,3.2C114.3,48.6,114.1,47.5,113.7,46.5z M112.3,42.3
	c0.4,1,0.8,2.1,1.1,3.2l0,0C113.1,44.4,112.7,43.3,112.3,42.3z M111.4,40.2c-0.1-0.3-0.3-0.7-0.5-1c0.5,1,0.9,2,1.3,3.1
	C112,41.6,111.7,40.9,111.4,40.2z M49.8,38.9L49.8,38.9l35.8,23h0.1L49.8,38.9z M85.6,61.9L49.8,84.8L85.6,61.9L85.6,61.9z
	 M44.9,114.1L44.9,114.1c2.9,1,6,1.7,9.2,2.2C50.9,115.9,47.9,115.1,44.9,114.1z M85.6,61.9L49.8,84.8L85.6,61.9L85.6,61.9z
	 M49.8,38.9L49.8,38.9l35.8,23h0.1L49.8,38.9z M44.8,114.1L44.8,114.1L89.7,85L44.8,114.1z M111.4,40.2c-0.1-0.3-0.3-0.7-0.5-1
	c0.5,1,0.9,2,1.3,3.1C112,41.6,111.7,40.9,111.4,40.2z M112.3,42.3c0.4,1,0.8,2.1,1.1,3.2l0,0C113.1,44.4,112.7,43.3,112.3,42.3z
	 M113.7,46.5c0.3,1,0.6,2.1,0.9,3.2C114.3,48.6,114.1,47.5,113.7,46.5z M115.7,56.8l-71-46.2c0,0,0.1,0,0.1-0.1
	c3.8-1.2,7.6-2,11.5-2.4c-3.9,0.4-7.8,1.2-11.6,2.4c0,0,0,0-0.1,0L115.7,56.8L115.7,56.8z M115,51.2c0.4,1.8,0.6,3.7,0.8,5.6
	l0.1,0.1C115.6,55,115.3,53.1,115,51.2z M89.6,85l26.2-17c0,0,0,0,0-0.1L89.6,85z M115.8,68c-2.5,23.7-19.9,42.5-42.2,47.5
	C96,110.5,113.5,91.7,115.8,68L115.8,68z M115.8,68c-2.5,23.7-19.9,42.5-42.2,47.5C96,110.5,113.5,91.7,115.8,68L115.8,68z M89.6,85
	l26.2-17c0,0,0,0,0-0.1L89.6,85z M115,51.2c0.4,1.8,0.6,3.7,0.8,5.6l0.1,0.1C115.6,55,115.3,53.1,115,51.2z M115.7,56.8l-71-46.2
	c0,0,0.1,0,0.1-0.1c3.8-1.2,7.6-2,11.5-2.4c-3.9,0.4-7.8,1.2-11.6,2.4c0,0,0,0-0.1,0L115.7,56.8L115.7,56.8z M113.7,46.5
	c0.3,1,0.6,2.1,0.9,3.2C114.3,48.6,114.1,47.5,113.7,46.5z M113.4,45.5c-0.3-1.1-0.7-2.1-1.1-3.2C112.7,43.3,113.1,44.4,113.4,45.5
	L113.4,45.5z M111.4,40.2c-0.1-0.3-0.3-0.7-0.5-1c0.5,1,0.9,2,1.3,3.1C112,41.6,111.7,40.9,111.4,40.2z M44.9,114.1L89.7,85
	L44.9,114.1C44.8,114.1,44.8,114.1,44.9,114.1z M49.8,38.9L49.8,38.9l35.8,23h0.1L49.8,38.9z M85.7,62L85.7,62L49.8,84.9L85.7,62z
	 M54.1,116.3c-3.1-0.5-6.2-1.2-9.2-2.2l-0.1,0.1C47.8,115.2,50.9,115.9,54.1,116.3z M115.8,68c-2.5,23.7-19.9,42.5-42.2,47.5
	C96,110.5,113.5,91.7,115.8,68L115.8,68z M89.6,85l26.2-17c0,0,0,0,0-0.1L89.6,85z M115,51.2c0.4,1.8,0.6,3.7,0.8,5.6l0.1,0.1
	C115.6,55,115.3,53.1,115,51.2z M115.7,56.8l-71-46.2c0,0,0.1,0,0.1-0.1c3.8-1.2,7.6-2,11.5-2.4c-3.9,0.4-7.8,1.2-11.6,2.4
	c0,0,0,0-0.1,0L115.7,56.8L115.7,56.8z M113.7,46.5c0.3,1,0.6,2.1,0.9,3.2C114.3,48.6,114.1,47.5,113.7,46.5z M113.4,45.5
	c-0.3-1.1-0.7-2.1-1.1-3.2C112.7,43.3,113.1,44.4,113.4,45.5L113.4,45.5z M111.4,40.2c-0.1-0.3-0.3-0.7-0.5-1c0.5,1,0.9,2,1.3,3.1
	C112,41.6,111.7,40.9,111.4,40.2z M44.9,114.1L89.7,85L44.9,114.1C44.8,114.1,44.8,114.1,44.9,114.1z M49.8,38.9L49.8,38.9l35.8,23
	h0.1L49.8,38.9z M85.7,62L85.7,62L49.8,84.9L85.7,62z M54.1,116.3c-3.1-0.5-6.2-1.2-9.2-2.2l-0.1,0.1
	C47.8,115.2,50.9,115.9,54.1,116.3z M44.9,114.1L44.9,114.1c2.9,1,6,1.7,9.2,2.2C50.9,115.9,47.9,115.1,44.9,114.1z M85.6,61.9
	L49.8,84.8L85.6,61.9L85.6,61.9z M49.8,38.9L49.8,38.9l35.8,23h0.1L49.8,38.9z M44.8,114.1L44.8,114.1L89.7,85L44.8,114.1z
	 M111.4,40.2c-0.1-0.3-0.3-0.7-0.5-1c0.5,1,0.9,2,1.3,3.1C112,41.6,111.7,40.9,111.4,40.2z M112.3,42.3c0.4,1,0.8,2.1,1.1,3.2l0,0
	C113.1,44.4,112.7,43.3,112.3,42.3z M113.7,46.5c0.3,1,0.6,2.1,0.9,3.2C114.3,48.6,114.1,47.5,113.7,46.5z M115.7,56.8l-71-46.2
	c0,0,0.1,0,0.1-0.1c3.8-1.2,7.6-2,11.5-2.4c-3.9,0.4-7.8,1.2-11.6,2.4c0,0,0,0-0.1,0L115.7,56.8L115.7,56.8z M115,51.2
	c0.4,1.8,0.6,3.7,0.8,5.6l0.1,0.1C115.6,55,115.3,53.1,115,51.2z M89.6,85l26.2-17c0,0,0,0,0-0.1L89.6,85z M115.8,68
	c-2.5,23.7-19.9,42.5-42.2,47.5C96,110.5,113.5,91.7,115.8,68L115.8,68z M44.9,114.1L44.9,114.1c2.9,1,6,1.7,9.2,2.2
	C50.9,115.9,47.9,115.1,44.9,114.1z M44.8,114.1L44.8,114.1L89.7,85L44.8,114.1z M89.6,85l26.2-17c0,0,0,0,0-0.1L89.6,85z M115.8,68
	c-2.5,23.7-19.9,42.5-42.2,47.5C96,110.5,113.5,91.7,115.8,68L115.8,68z M115,51.2c0.4,1.8,0.6,3.7,0.8,5.6l0.1,0.1
	C115.6,55,115.3,53.1,115,51.2z M115.7,56.8l-71-46.2c0,0,0.1,0,0.1-0.1c3.8-1.2,7.6-2,11.5-2.4c-3.9,0.4-7.8,1.2-11.6,2.4
	c0,0,0,0-0.1,0L115.7,56.8L115.7,56.8z M113.7,46.5c0.3,1,0.6,2.1,0.9,3.2C114.3,48.6,114.1,47.5,113.7,46.5z M112.3,42.3
	c0.4,1,0.8,2.1,1.1,3.2l0,0C113.1,44.4,112.7,43.3,112.3,42.3z M111.4,40.2c-0.1-0.3-0.3-0.7-0.5-1c0.5,1,0.9,2,1.3,3.1
	C112,41.6,111.7,40.9,111.4,40.2z M49.8,38.9L49.8,38.9l35.8,23h0.1L49.8,38.9z M85.6,61.9L49.8,84.8L85.6,61.9L85.6,61.9z
	 M85.6,61.9L49.8,84.8L85.6,61.9L85.6,61.9z M49.8,38.9L49.8,38.9l35.8,23h0.1L49.8,38.9z M115,51.2c0.4,1.8,0.6,3.7,0.8,5.6
	l0.1,0.1C115.6,55,115.3,53.1,115,51.2z M115.7,56.8l-71-46.2c0,0,0.1,0,0.1-0.1c3.8-1.2,7.6-2,11.5-2.4c-3.9,0.4-7.8,1.2-11.6,2.4
	c0,0,0,0-0.1,0L115.7,56.8L115.7,56.8z M113.7,46.5c0.3,1,0.6,2.1,0.9,3.2C114.3,48.6,114.1,47.5,113.7,46.5z M112.3,42.3
	c0.4,1,0.8,2.1,1.1,3.2l0,0C113.1,44.4,112.7,43.3,112.3,42.3z M111.4,40.2c-0.1-0.3-0.3-0.7-0.5-1c0.5,1,0.9,2,1.3,3.1
	C112,41.6,111.7,40.9,111.4,40.2z M44.9,114.1L44.9,114.1c2.9,1,6,1.7,9.2,2.2C50.9,115.9,47.9,115.1,44.9,114.1z M44.8,114.1
	L44.8,114.1L89.7,85L44.8,114.1z M89.6,85l26.2-17c0,0,0,0,0-0.1L89.6,85z M115.8,68c-2.5,23.7-19.9,42.5-42.2,47.5
	C96,110.5,113.5,91.7,115.8,68L115.8,68z M44.9,114.1L44.9,114.1c2.9,1,6,1.7,9.2,2.2C50.9,115.9,47.9,115.1,44.9,114.1z
	 M44.8,114.1L44.8,114.1L89.7,85L44.8,114.1z M89.6,85l26.2-17c0,0,0,0,0-0.1L89.6,85z M115.8,68c-2.5,23.7-19.9,42.5-42.2,47.5
	C96,110.5,113.5,91.7,115.8,68L115.8,68z M115,51.2c0.4,1.8,0.6,3.7,0.8,5.6l0.1,0.1C115.6,55,115.3,53.1,115,51.2z M115.7,56.8
	l-71-46.2c0,0,0.1,0,0.1-0.1c3.8-1.2,7.6-2,11.5-2.4c-3.9,0.4-7.8,1.2-11.6,2.4c0,0,0,0-0.1,0L115.7,56.8L115.7,56.8z M113.7,46.5
	c0.3,1,0.6,2.1,0.9,3.2C114.3,48.6,114.1,47.5,113.7,46.5z M112.3,42.3c0.4,1,0.8,2.1,1.1,3.2l0,0C113.1,44.4,112.7,43.3,112.3,42.3
	z M111.4,40.2c-0.1-0.3-0.3-0.7-0.5-1c0.5,1,0.9,2,1.3,3.1C112,41.6,111.7,40.9,111.4,40.2z M85.6,61.9L49.8,84.8L85.6,61.9
	L85.6,61.9z M49.8,38.9L49.8,38.9l35.8,23h0.1L49.8,38.9z M44.9,114.1L44.9,114.1c2.9,1,6,1.7,9.2,2.2
	C50.9,115.9,47.9,115.1,44.9,114.1z M89.6,85l26.2-17c0,0,0,0,0-0.1L89.6,85z M115,51.2c0.4,1.8,0.6,3.7,0.8,5.6l0.1,0.1
	C115.6,55,115.3,53.1,115,51.2z M111.4,40.2c-0.1-0.3-0.3-0.7-0.5-1c0.5,1,0.9,2,1.3,3.1C112,41.6,111.7,40.9,111.4,40.2z
	 M44.8,114.1L44.8,114.1L89.7,85L44.8,114.1z M115.8,68c-2.5,23.7-19.9,42.5-42.2,47.5C96,110.5,113.5,91.7,115.8,68L115.8,68z
	 M115.7,56.8l-71-46.2c0,0,0.1,0,0.1-0.1c3.8-1.2,7.6-2,11.5-2.4c-3.9,0.4-7.8,1.2-11.6,2.4c0,0,0,0-0.1,0L115.7,56.8L115.7,56.8z
	 M113.7,46.5c0.3,1,0.6,2.1,0.9,3.2C114.3,48.6,114.1,47.5,113.7,46.5z M49.8,39l35.8,22.9h0.1L49.8,39z"/>
<path class="st1" d="M62.1,0L62.1,0C27.8,0,0,27.8,0,62s27.8,62,62,62s62-27.8,62-62S96.3,0,62.1,0z M112.6,96.1
	c-2.2,3.2-4.7,6.3-7.5,9.1c-2.8,2.8-5.8,5.3-9.1,7.5c-3.3,2.2-6.7,4.1-10.4,5.6c-15.1,6.5-32.3,6.5-47.4,0
	c-3.6-1.5-7.1-3.4-10.4-5.6c-3.2-2.2-6.3-4.7-9.1-7.5s-5.3-5.8-7.5-9.1C9,92.8,7.1,89.4,5.6,85.7c-6.5-15.1-6.5-32.3,0-47.4
	c1.5-3.6,3.4-7.1,5.6-10.4c2.2-3.2,4.7-6.3,7.5-9c2.8-2.8,5.8-5.3,9.1-7.5s6.7-4.1,10.4-5.6C45.8,2.7,53.9,1,62,1s16.2,1.6,23.7,4.8
	c3.6,1.5,7.1,3.4,10.4,5.6s6.3,4.7,9.1,7.5c2.7,2.8,5.2,5.8,7.5,9c2.2,3.3,4.1,6.7,5.6,10.4c6.5,15.1,6.5,32.3,0,47.4
	C116.7,89.3,114.8,92.8,112.6,96.1z"/>
<path class="st1" d="M115.8,68c-2.6,24.4-21,43.7-44.4,48c-0.4,0.1-0.7,0.1-1.1,0.2c-0.8,0.1-1.6,0.2-2.3,0.3
	c-1.2,0.1-2.5,0.2-3.7,0.3c-0.9,0-1.7,0.1-2.6,0.1c-0.4,0-0.7,0-1.1,0c-0.7,0-1.4,0-2.1-0.1c-0.7,0-1.4-0.1-2.1-0.2
	c-0.7-0.1-1.3-0.1-2-0.2c-0.1,0-0.1,0-0.2,0c-3.1-0.5-6.2-1.2-9.2-2.2L89.6,85L115.8,68z"/>
<path class="st1" d="M115.7,56.8l-71-46.2c0,0,0.1,0,0.1-0.1c3.8-1.2,7.6-2,11.5-2.4h0.1C57.2,8,57.9,8,58.6,8
	c2.4-0.2,4.9-0.2,7.3,0c0.5,0,1,0.1,1.5,0.1s1,0.1,1.5,0.2c0.4,0.1,0.8,0.1,1.2,0.2c0.6,0.1,1.2,0.2,1.8,0.3C72.2,8.9,72.6,9,73,9.1
	c0.3,0.1,0.7,0.1,1,0.2s0.6,0.2,1,0.2c0.1,0,0.1,0,0.1,0c0.4,0.1,0.8,0.2,1.2,0.3c0.3,0.1,0.6,0.2,0.8,0.2c0.4,0.1,0.7,0.2,1.1,0.3
	c0.3,0.1,0.6,0.2,0.9,0.3s0.6,0.2,0.9,0.3s0.5,0.2,0.8,0.3c0.5,0.2,1,0.4,1.5,0.6c0.5,0.2,1,0.4,1.5,0.6c0.5,0.2,1,0.4,1.5,0.7
	c0.5,0.2,1,0.5,1.5,0.7c0.1,0.1,0.3,0.1,0.4,0.2c1,0.5,2.1,1.1,3.1,1.8c0.7,0.4,1.3,0.8,2,1.3l0,0c0.6,0.4,1.2,0.8,1.8,1.3
	c0.5,0.4,1,0.8,1.5,1.2c0.3,0.2,0.6,0.4,0.8,0.7c1,0.9,2.1,1.8,3,2.7c0.4,0.4,0.8,0.8,1.2,1.2l0,0l0,0c0.3,0.3,0.6,0.6,0.9,1
	c0.1,0.1,0.1,0.1,0.2,0.2c0,0,0.1,0.1,0.1,0.2s0.1,0.1,0.1,0.2c0.7,0.8,1.4,1.6,2.1,2.4c0.9,1.1,1.8,2.3,2.6,3.5
	c0.2,0.3,0.4,0.6,0.6,0.9c0.1,0.2,0.2,0.3,0.3,0.5c0.3,0.4,0.6,0.9,0.8,1.4c0.2,0.3,0.4,0.6,0.5,0.9c0.2,0.3,0.3,0.5,0.5,0.8
	c0.1,0.3,0.3,0.5,0.5,0.8c0.1,0.2,0.2,0.3,0.3,0.5c0.1,0.3,0.3,0.5,0.4,0.7c0.2,0.3,0.3,0.7,0.5,1c0.5,1,0.9,2,1.3,3.1
	c0.4,1,0.8,2.1,1.1,3.2c0.1,0.3,0.2,0.7,0.3,1c0.3,1,0.6,2.1,0.9,3.2c0.1,0.5,0.2,1,0.4,1.6C115.3,53.1,115.6,54.9,115.7,56.8z"/>
<polygon class="st1" points="85.6,61.9 49.8,84.9 49.8,39 "/>
<path class="st1" d="M29,18.7V106c-6.7-5-12.1-11.5-15.9-18.9C3.1,67.6,5.8,44,20,27.2C22.7,24.1,25.7,21.2,29,18.7z"/>
</svg>
